<?xml version="1.0" standalone="no"?>
<!DOCTYPE svg PUBLIC "-//W3C//DTD SVG 20010904//EN"
 "http://www.w3.org/TR/2001/REC-SVG-20010904/DTD/svg10.dtd">
<svg version="1.0" xmlns="http://www.w3.org/2000/svg"
 width="400.000000pt" height="400.000000pt" viewBox="0 0 400.000000 400.000000"
 preserveAspectRatio="xMidYMid meet">
<metadata>
Created by potrace 1.14, written by Peter Selinger 2001-2017
</metadata>
<g transform="translate(0.000000,400.000000) scale(0.100000,-0.100000)"
fill="#000000" stroke="none">
<path d="M835 3503 c-213 -29 -391 -178 -470 -393 -28 -75 -28 -76 -31 -373
-2 -253 -5 -306 -20 -354 -35 -110 -145 -209 -259 -233 l-52 -11 1 -93 0 -93
57 -12 c108 -22 208 -111 251 -223 18 -49 20 -80 23 -388 3 -365 5 -381 65
-501 54 -106 162 -218 260 -268 62 -32 156 -60 223 -66 l66 -6 -1 96 c0 80 -3
95 -17 96 -176 11 -324 121 -387 290 -14 37 -17 97 -20 371 -3 366 -8 400 -70
519 -24 44 -59 90 -98 126 l-61 58 60 60 c90 89 144 192 160 307 4 27 8 171 9
320 2 150 6 282 10 293 41 107 120 207 194 244 73 36 122 48 217 50 l50 1 0
93 -1 92 -64 1 c-36 1 -78 0 -95 -3z"/>
<path d="M3009 3489 c-8 -177 -11 -171 87 -173 164 -4 299 -105 361 -270 13
-33 17 -95 18 -326 3 -318 11 -377 68 -484 17 -34 62 -91 99 -128 37 -38 64
-68 60 -68 -14 0 -102 -93 -136 -144 -40 -61 -73 -147 -82 -213 -4 -26 -8
-185 -9 -353 -1 -262 -4 -312 -19 -355 -54 -153 -179 -260 -336 -287 l-70 -12
0 -94 0 -94 54 6 c218 21 405 150 496 341 60 126 63 154 65 510 2 305 3 323
25 378 20 55 57 106 105 150 30 27 115 66 160 73 l41 6 0 93 1 94 -49 10
c-123 27 -212 104 -262 231 -16 39 -19 83 -21 340 -3 328 -8 361 -71 480 -94
180 -275 293 -490 307 -94 6 -94 6 -95 -18z"/>
<path d="M1050 2750 c0 -3 48 -50 107 -105 160 -150 161 -151 294 -276 68 -64
140 -131 159 -149 111 -104 261 -161 411 -155 105 4 176 24 259 72 55 32 83
55 181 147 41 39 140 132 219 206 80 74 175 165 213 201 l69 65 -141 -1 -140
-1 -53 -48 c-69 -63 -258 -239 -317 -295 -136 -129 -189 -155 -311 -156 -77 0
-92 3 -150 32 -38 19 -95 61 -136 100 -81 78 -288 272 -351 329 l-42 38 -136
1 c-74 0 -135 -2 -135 -5z"/>
<path d="M1855 1921 c-123 -38 -176 -71 -302 -191 -44 -41 -137 -129 -208
-195 -70 -66 -144 -136 -164 -155 -20 -19 -60 -56 -88 -82 -29 -27 -51 -49
-50 -49 1 -1 63 -2 136 -3 l135 -2 35 31 c19 16 47 41 61 55 15 14 82 77 150
140 68 63 141 132 162 152 85 84 174 128 268 133 70 3 169 -30 229 -77 13 -10
85 -76 159 -146 180 -170 190 -179 253 -238 l54 -50 135 2 c74 1 136 2 136 3
2 1 -213 206 -316 301 -19 18 -90 85 -158 148 -143 134 -197 173 -290 209 -92
35 -249 41 -337 14z"/>
</g>
</svg>
